<?xml version="1.0" encoding="UTF-8"?>
<svg xmlns="http://www.w3.org/2000/svg" xmlns:xlink="http://www.w3.org/1999/xlink" width="15px" height="15px" viewBox="0 0 15 15" version="1.1">
<g id="surface1">
<path style=" stroke:none;fill-rule:nonzero;fill:rgb(0%,0%,0%);fill-opacity:1;" d="M 13.460938 4.445312 C 13.46875 4.578125 13.46875 4.710938 13.46875 4.84375 C 13.46875 8.90625 10.375 13.589844 4.71875 13.589844 C 2.976562 13.589844 1.359375 13.085938 0 12.210938 C 0.246094 12.238281 0.484375 12.25 0.742188 12.25 C 2.179688 12.25 3.5 11.761719 4.558594 10.9375 C 3.207031 10.90625 2.074219 10.023438 1.683594 8.804688 C 1.875 8.832031 2.066406 8.851562 2.265625 8.851562 C 2.539062 8.851562 2.816406 8.8125 3.074219 8.746094 C 1.664062 8.460938 0.609375 7.222656 0.609375 5.726562 L 0.609375 5.6875 C 1.019531 5.917969 1.496094 6.0625 2 6.078125 C 1.167969 5.527344 0.628906 4.585938 0.628906 3.519531 C 0.628906 2.945312 0.78125 2.421875 1.046875 1.964844 C 2.5625 3.832031 4.835938 5.050781 7.386719 5.183594 C 7.339844 4.953125 7.308594 4.714844 7.308594 4.480469 C 7.308594 2.785156 8.679688 1.40625 10.382812 1.40625 C 11.265625 1.40625 12.066406 1.777344 12.628906 2.375 C 13.324219 2.242188 13.992188 1.984375 14.582031 1.632812 C 14.351562 2.347656 13.867188 2.945312 13.230469 3.328125 C 13.847656 3.261719 14.449219 3.089844 15 2.851562 C 14.582031 3.460938 14.054688 4.003906 13.460938 4.445312 Z M 13.460938 4.445312 "/>
</g>
</svg>
